<svg width="512" height="512" viewBox="0 0 512 512" xmlns="http://www.w3.org/2000/svg">
  <defs>
    <linearGradient id="grad1" x1="0%" y1="0%" x2="100%" y2="100%">
      <stop offset="0%" style="stop-color:#FF6B35;stop-opacity:1" />
      <stop offset="100%" style="stop-color:#FF8C5A;stop-opacity:1" />
    </linearGradient>
  </defs>
  
  <rect width="512" height="512" rx="120" fill="url(#grad1)"/>
  
  <g transform="translate(256, 256)">
    <path d="M -80 -60 L -80 20 L -60 40 L 60 40 L 80 20 L 80 -60 L 60 -80 L -60 -80 Z" 
          fill="white" opacity="0.95"/>
    
    <path d="M -50 -50 L -50 -30 L -70 -30 L -70 10 L 70 10 L 70 -30 L 50 -30 L 50 -50 Z" 
          fill="#FF6B35"/>
    
    <circle cx="-40" cy="-40" r="8" fill="white"/>
    <circle cx="40" cy="-40" r="8" fill="white"/>
    
    <path d="M -60 10 L -50 50 L -40 80 L 40 80 L 50 50 L 60 10 Z" 
          fill="#FF6B35" opacity="0.8"/>
    
    <rect x="-25" y="15" width="50" height="50" rx="5" fill="white" opacity="0.3"/>
  </g>
  
  <text x="256" y="440" font-family="Arial, sans-serif" font-size="72" font-weight="bold" 
        fill="white" text-anchor="middle">ShopHub</text>
</svg>
